<svg xmlns="http://www.w3.org/2000/svg" width="512" height="512" viewBox="52 52 408 408">
  <defs>
    <radialGradient id="cream" cx=".5" cy=".38" r=".85">
      <stop offset="0" stop-color="#f7f2e8"/><stop offset=".7" stop-color="#ece2cf"/><stop offset="1" stop-color="#ddcdb0"/>
    </radialGradient>
    <filter id="drop" x="-20%" y="-20%" width="140%" height="150%">
      <feDropShadow dx="0" dy="14" stdDeviation="12" flood-color="#3a2a18" flood-opacity="0.32"/>
    </filter>
    <linearGradient id="sheen" x1="0" y1="0" x2="1" y2="1">
      <stop offset="0" stop-color="#fff" stop-opacity="0"/><stop offset=".45" stop-color="#fff" stop-opacity=".32"/><stop offset=".55" stop-color="#fff" stop-opacity="0"/>
    </linearGradient>
    <clipPath id="stone"><polygon points="176,142 336,142 442,218 256,438 70,218"/></clipPath>
  </defs>
  
  <g transform="translate(256 256) scale(1) translate(-256 -290)">
    <g filter="url(#drop)">
      <polygon points="176,142 336,142 442,218 256,438 70,218" fill="#1d2a3a" stroke="#1d2a3a" stroke-width="14" stroke-linejoin="round"/>
      <polygon points="70,218 176,142 163,218" fill="#d7eefc" stroke="#ffffff" stroke-opacity="0.6" stroke-width="2" stroke-linejoin="round"/><polygon points="176,142 229,142 163,218" fill="#ffffff" stroke="#ffffff" stroke-opacity="0.6" stroke-width="2" stroke-linejoin="round"/><polygon points="229,142 256,218 163,218" fill="#a9d3ef" stroke="#ffffff" stroke-opacity="0.6" stroke-width="2" stroke-linejoin="round"/><polygon points="229,142 283,142 256,218" fill="#e6f5fe" stroke="#ffffff" stroke-opacity="0.6" stroke-width="2" stroke-linejoin="round"/><polygon points="283,142 349,218 256,218" fill="#7fb5de" stroke="#ffffff" stroke-opacity="0.6" stroke-width="2" stroke-linejoin="round"/><polygon points="283,142 336,142 349,218" fill="#c3e2f6" stroke="#ffffff" stroke-opacity="0.6" stroke-width="2" stroke-linejoin="round"/><polygon points="336,142 442,218 349,218" fill="#5a95c7" stroke="#ffffff" stroke-opacity="0.6" stroke-width="2" stroke-linejoin="round"/>
      <polygon points="70,218 163,218 256,438" fill="#bfe0f5" stroke="#ffffff" stroke-opacity="0.5" stroke-width="2" stroke-linejoin="round"/><polygon points="163,218 256,218 256,438" fill="#7cb2dc" stroke="#ffffff" stroke-opacity="0.5" stroke-width="2" stroke-linejoin="round"/><polygon points="256,218 349,218 256,438" fill="#4d86ba" stroke="#ffffff" stroke-opacity="0.5" stroke-width="2" stroke-linejoin="round"/><polygon points="349,218 442,218 256,438" fill="#2e6195" stroke="#ffffff" stroke-opacity="0.5" stroke-width="2" stroke-linejoin="round"/>
    </g>
    <g clip-path="url(#stone)">
      <rect x="60" y="130" width="400" height="320" fill="url(#sheen)"/>
      <path d="M118,300 L123.52,295.02 L129.04,290.05 L134.56,285.13 L140.08,280.26 L145.6,275.48 L151.12,270.79 L156.64,266.21 L162.16,261.77 L167.68,257.48 L173.2,253.35 L178.72,249.41 L184.24,245.67 L189.76,242.15 L195.28,238.85 L200.8,235.8 L206.32,232.99 L211.84,230.46 L217.36,228.19 L222.88,226.21 L228.4,224.52 L233.92,223.13 L239.44,222.05 L244.96,221.27 L250.48,220.8 L256,220.64 L261.52,220.8 L267.04,221.27 L272.56,222.05 L278.08,223.13 L283.6,224.52 L289.12,226.21 L294.64,228.19 L300.16,230.46 L305.68,232.99 L311.2,235.8 L316.72,238.85 L322.24,242.15 L327.76,245.67 L333.28,249.41 L338.8,253.35 L344.32,257.48 L349.84,261.77 L355.36,266.21 L360.88,270.79 L366.4,275.48 L371.92,280.26 L377.44,285.13 L382.96,290.05 L388.48,295.02 L394,300" fill="none" stroke="#6e0d1a" stroke-width="7" stroke-linecap="round" opacity=".3" transform="translate(0 3)"/>
      <path d="M118,300 L123.52,295.02 L129.04,290.05 L134.56,285.13 L140.08,280.26 L145.6,275.48 L151.12,270.79 L156.64,266.21 L162.16,261.77 L167.68,257.48 L173.2,253.35 L178.72,249.41 L184.24,245.67 L189.76,242.15 L195.28,238.85 L200.8,235.8 L206.32,232.99 L211.84,230.46 L217.36,228.19 L222.88,226.21 L228.4,224.52 L233.92,223.13 L239.44,222.05 L244.96,221.27 L250.48,220.8 L256,220.64 L261.52,220.8 L267.04,221.27 L272.56,222.05 L278.08,223.13 L283.6,224.52 L289.12,226.21 L294.64,228.19 L300.16,230.46 L305.68,232.99 L311.2,235.8 L316.72,238.85 L322.24,242.15 L327.76,245.67 L333.28,249.41 L338.8,253.35 L344.32,257.48 L349.84,261.77 L355.36,266.21 L360.88,270.79 L366.4,275.48 L371.92,280.26 L377.44,285.13 L382.96,290.05 L388.48,295.02 L394,300" fill="none" stroke="#c8202f" stroke-width="5.5" stroke-linecap="round"/>
      <path d="M138.11,278 L125.52,275.68" stroke="#c8202f" stroke-width="5" stroke-linecap="round" fill="none"/><path d="M142.05,282.53 L142.55,295.33" stroke="#c8202f" stroke-width="5" stroke-linecap="round" fill="none"/><path d="M160.32,259.4 L147.87,256.41" stroke="#c8202f" stroke-width="5" stroke-linecap="round" fill="none"/><path d="M164,264.14 L163.82,276.94" stroke="#c8202f" stroke-width="5" stroke-linecap="round" fill="none"/><path d="M188.22,239.57 L176.23,235.09" stroke="#c8202f" stroke-width="5" stroke-linecap="round" fill="none"/><path d="M191.3,244.72 L189.56,257.41" stroke="#c8202f" stroke-width="5" stroke-linecap="round" fill="none"/><path d="M210.7,227.68 L199.51,221.46" stroke="#c8202f" stroke-width="5" stroke-linecap="round" fill="none"/><path d="M212.98,233.23 L209.37,245.52" stroke="#c8202f" stroke-width="5" stroke-linecap="round" fill="none"/><path d="M233.34,220.19 L223.56,211.92" stroke="#c8202f" stroke-width="5" stroke-linecap="round" fill="none"/><path d="M234.5,226.08 L228.58,237.43" stroke="#c8202f" stroke-width="5" stroke-linecap="round" fill="none"/><path d="M256.09,217.64 L248.37,207.42" stroke="#c8202f" stroke-width="5" stroke-linecap="round" fill="none"/><path d="M255.91,223.64 L247.63,233.41" stroke="#c8202f" stroke-width="5" stroke-linecap="round" fill="none"/><path d="M278.81,220.22 L273.5,208.57" stroke="#c8202f" stroke-width="5" stroke-linecap="round" fill="none"/><path d="M277.35,226.04 L267.15,233.78" stroke="#c8202f" stroke-width="5" stroke-linecap="round" fill="none"/><path d="M301.41,227.73 L298.32,215.3" stroke="#c8202f" stroke-width="5" stroke-linecap="round" fill="none"/><path d="M298.91,233.18 L287.46,238.93" stroke="#c8202f" stroke-width="5" stroke-linecap="round" fill="none"/><path d="M329.44,243.19 L328.43,230.42" stroke="#c8202f" stroke-width="5" stroke-linecap="round" fill="none"/><path d="M326.08,248.16 L313.85,251.95" stroke="#c8202f" stroke-width="5" stroke-linecap="round" fill="none"/><path d="M351.72,259.43 L351.76,246.62" stroke="#c8202f" stroke-width="5" stroke-linecap="round" fill="none"/><path d="M347.96,264.11 L335.46,266.88" stroke="#c8202f" stroke-width="5" stroke-linecap="round" fill="none"/><path d="M373.9,278.01 L374.51,265.22" stroke="#c8202f" stroke-width="5" stroke-linecap="round" fill="none"/><path d="M369.94,282.51 L357.32,284.73" stroke="#c8202f" stroke-width="5" stroke-linecap="round" fill="none"/>
    </g>
    <path d="M364,102 L368.84,119.16 L386,124 L368.84,128.84 L364,146 L359.16,128.84 L342,124 L359.16,119.16 Z" fill="#b8860b"/><path d="M410,220 L412.64,229.36 L422,232 L412.64,234.64 L410,244 L407.36,234.64 L398,232 L407.36,229.36 Z" fill="#b8860b"/><path d="M206,160 L208.2,167.8 L216,170 L208.2,172.2 L206,180 L203.8,172.2 L196,170 L203.8,167.8 Z" fill="#ffffff"/>
  </g>
</svg>