<svg xmlns="http://www.w3.org/2000/svg" viewBox="0 0 64 64" role="img"
     aria-label="College Football: Perfect Season">
  <title>College Football: Perfect Season</title>
  <!--
    THE MARK ON ITS OWN PLATE, for anything that wants a square: the favicon, a browser
    tab, a bookmark, a home screen. #111827 is the panel the game draws every card on.

    ONE PICTURE AT EVERY SIZE, including 16, where the cage goes to a few grey pixels and
    reads as texture rather than as a facemask. That is a real cost and it buys one mark
    instead of two: at 32, which is what a retina tab actually draws, the cage reads.

    GENERATED by cfb/build/06-mark.mjs. Edit that, not this.
  -->
  <rect width="64" height="64" rx="14" fill="#111827"/>
  <g transform="translate(32 32) scale(0.86) translate(-32 -32)">
    <g stroke="#f8fafc" stroke-width="2" stroke-linejoin="round" stroke-linecap="round">
      <path fill="#10b981" d="M26 32 L18.4 32 A3.9 3.9 0 0 0 10.6 32 L4 32 A22 22 0 0 1 26 10 L26 16.6 A3.9 3.9 0 0 1 26 24.4 Z"/>
      <path fill="#fbbf24" d="M26 32 L26 24.4 A3.9 3.9 0 0 0 26 16.6 L26 10 A22 22 0 0 1 48 32 L41.4 32 A3.9 3.9 0 0 1 33.6 32 Z"/>
      <path fill="#d97706" d="M26 32 L33.6 32 A3.9 3.9 0 0 0 41.4 32 L48 32 A22 22 0 0 1 26 54 L26 47.4 A3.9 3.9 0 0 1 26 39.6 Z"/>
      <path fill="#047857" d="M26 32 L26 39.6 A3.9 3.9 0 0 0 26 47.4 L26 54 A22 22 0 0 1 4 32 L10.6 32 A3.9 3.9 0 0 1 18.4 32 Z"/>
    </g>
    <g fill="none" stroke-linecap="round" stroke-linejoin="round">
      <path stroke="#0f172a" stroke-width="3.5" d="M47.5 27 Q57.5 28.5 59.4 37.5 Q60.6 47.5 52.5 54 Q45.5 56.6 43.2 48 Q41.8 36.5 47.5 27 Z"/>
      <path stroke="#0f172a" stroke-width="3.2" d="M50.8 27.4 Q53.4 41.4 50.8 54.6"/>
      <path stroke="#0f172a" stroke-width="3.2" d="M43.4 37 Q51.4 36 59.2 37.6"/>
      <path stroke="#0f172a" stroke-width="3.2" d="M42.9 46 Q51 45.2 58.6 46.8"/>
      <path stroke="#e2e8f0" stroke-width="2.1" d="M47.5 27 Q57.5 28.5 59.4 37.5 Q60.6 47.5 52.5 54 Q45.5 56.6 43.2 48 Q41.8 36.5 47.5 27 Z"/>
      <path stroke="#e2e8f0" stroke-width="1.8" d="M50.8 27.4 Q53.4 41.4 50.8 54.6"/>
      <path stroke="#e2e8f0" stroke-width="1.8" d="M43.4 37 Q51.4 36 59.2 37.6"/>
      <path stroke="#e2e8f0" stroke-width="1.8" d="M42.9 46 Q51 45.2 58.6 46.8"/>
    </g>
  </g>
</svg>
